<svg
        
            viewBox="0 0 18 18"
            fill="none"
            xmlns="http://www.w3.org/2000/svg"
          >
            <path
              d="M1.67501 17.4C1.34167 17.4667 1.06251 17.3833 0.837506 17.15C0.612506 16.9167 0.533339 16.6333 0.600006 16.3L1.52501 11.85L6.12501 16.475L1.67501 17.4ZM6.12501 16.475L1.52501 11.85L12.275 1.12501C12.625 0.775006 13.0458 0.600006 13.5375 0.600006C14.0292 0.600006 14.45 0.775006 14.8 1.12501L16.875 3.17501C17.225 3.52501 17.4 3.95001 17.4 4.45001C17.4 4.95001 17.225 5.37501 16.875 5.72501L6.12501 16.475ZM13.525 2.40001L3.77501 12.175L5.82501 14.225L15.6 4.47501L13.525 2.40001Z"
              fill="#5230FF"
            />
          </svg>