 <svg
           
            viewBox="0 0 16 18"
            fill="none"
            xmlns="http://www.w3.org/2000/svg"
          >
            <path
              d="M3.80005 17.4C3.30505 17.4 2.8813 17.2238 2.5288 16.8713C2.1763 16.5188 2.00005 16.095 2.00005 15.6V3.60001H1.70005C1.44505 3.60001 1.2313 3.51426 1.0588 3.34278C0.886299 3.17128 0.800049 2.95878 0.800049 2.70528C0.800049 2.45176 0.886299 2.23751 1.0588 2.06251C1.2313 1.88751 1.44505 1.80001 1.70005 1.80001H5.60005V1.50001C5.60005 1.24501 5.6863 1.03126 5.8588 0.858755C6.0313 0.686255 6.24505 0.600006 6.50005 0.600006H9.50005C9.75505 0.600006 9.9688 0.686255 10.1413 0.858755C10.3138 1.03126 10.4 1.24501 10.4 1.50001V1.80001H14.3C14.555 1.80001 14.7688 1.88575 14.9413 2.05723C15.1138 2.22873 15.2 2.44123 15.2 2.69473C15.2 2.94825 15.1138 3.16251 14.9413 3.33751C14.7688 3.51251 14.555 3.60001 14.3 3.60001H14V15.5892C14 16.0964 13.8238 16.525 13.4713 16.875C13.1188 17.225 12.695 17.4 12.2 17.4H3.80005ZM12.2 3.60001H3.80005V15.6H12.2V3.60001ZM6.49477 13.8C6.74829 13.8 6.96255 13.7138 7.13755 13.5413C7.31255 13.3688 7.40005 13.155 7.40005 12.9V6.30001C7.40005 6.04501 7.31431 5.83126 7.14282 5.65876C6.97132 5.48626 6.75882 5.40001 6.50532 5.40001C6.25181 5.40001 6.03755 5.48626 5.86255 5.65876C5.68755 5.83126 5.60005 6.04501 5.60005 6.30001V12.9C5.60005 13.155 5.68579 13.3688 5.85727 13.5413C6.02877 13.7138 6.24127 13.8 6.49477 13.8ZM9.49477 13.8C9.74829 13.8 9.96255 13.7138 10.1375 13.5413C10.3125 13.3688 10.4 13.155 10.4 12.9V6.30001C10.4 6.04501 10.3143 5.83126 10.1428 5.65876C9.97132 5.48626 9.75882 5.40001 9.50532 5.40001C9.25181 5.40001 9.03755 5.48626 8.86255 5.65876C8.68755 5.83126 8.60005 6.04501 8.60005 6.30001V12.9C8.60005 13.155 8.68579 13.3688 8.85727 13.5413C9.02877 13.7138 9.24127 13.8 9.49477 13.8Z"
              fill="#5230FF"
            />
          </svg>