<svg width="29" height="26" viewBox="0 0 29 26" fill="none" xmlns="http://www.w3.org/2000/svg">
<mask id="mask0_88_11979" style="mask-type:alpha" maskUnits="userSpaceOnUse" x="0" y="2" width="24" height="24">
<rect y="2" width="24" height="24" fill="#D9D9D9"/>
</mask>
<g mask="url(#mask0_88_11979)">
<path d="M6 24C5.45 24 4.97933 23.8043 4.588 23.413C4.196 23.021 4 22.55 4 22V6C4 5.45 4.196 4.979 4.588 4.587C4.97933 4.19567 5.45 4 6 4H13.175C13.4417 4 13.696 4.05 13.938 4.15C14.1793 4.25 14.3917 4.39167 14.575 4.575L19.425 9.425C19.6083 9.60833 19.75 9.82067 19.85 10.062C19.95 10.304 20 10.5583 20 10.825V14H18V11H14C13.7167 11 13.4793 10.904 13.288 10.712C13.096 10.5207 13 10.2833 13 10V6H6V22H12V24H6ZM18.3 16.525L19.375 17.6L15.5 21.45V22.5H16.55L20.425 18.65L21.475 19.7L17.475 23.7C17.375 23.8 17.2623 23.875 17.137 23.925C17.0123 23.975 16.8833 24 16.75 24H14.5C14.3667 24 14.25 23.95 14.15 23.85C14.05 23.75 14 23.6333 14 23.5V21.25C14 21.1167 14.025 20.9877 14.075 20.863C14.125 20.7377 14.2 20.625 14.3 20.525L18.3 16.525ZM21.475 19.7L18.3 16.525L19.75 15.075C19.9333 14.8917 20.1667 14.8 20.45 14.8C20.7333 14.8 20.9667 14.8917 21.15 15.075L22.925 16.85C23.1083 17.0333 23.2 17.2667 23.2 17.55C23.2 17.8333 23.1083 18.0667 22.925 18.25L21.475 19.7Z" fill="#252525"/>
</g>
</svg>
